<svg xmlns="http://www.w3.org/2000/svg" width="1200" height="630" viewBox="0 0 1200 630" role="img" aria-label="СЕРВЕР-ДОМ серверное оборудование">
  <defs>
    <linearGradient id="bg" x1="0" y1="0" x2="1" y2="1"><stop stop-color="#050816"/><stop offset="1" stop-color="#071124"/></linearGradient>
    <linearGradient id="g" x1="0" x2="1"><stop stop-color="#22d3ee"/><stop offset=".55" stop-color="#a855f7"/><stop offset="1" stop-color="#b8ff2c"/></linearGradient>
    <filter id="glow"><feGaussianBlur stdDeviation="12" result="b"/><feMerge><feMergeNode in="b"/><feMergeNode in="SourceGraphic"/></feMerge></filter>
  </defs>
  <rect width="1200" height="630" fill="url(#bg)"/>
  <path d="M0 470C180 350 280 540 470 390S810 260 1200 350" fill="none" stroke="url(#g)" stroke-width="4" opacity=".55"/>
  <g opacity=".18" stroke="#22d3ee"><path d="M0 80h1200M0 160h1200M0 240h1200M0 320h1200M0 400h1200M0 480h1200M0 560h1200"/><path d="M80 0v630M160 0v630M240 0v630M320 0v630M400 0v630M480 0v630M560 0v630M640 0v630M720 0v630M800 0v630M880 0v630M960 0v630M1040 0v630M1120 0v630"/></g>
  <g transform="translate(715 170) skewY(-10)" filter="url(#glow)">
    <rect width="340" height="70" rx="18" fill="#14223d" stroke="#22d3ee"/>
    <rect y="82" width="340" height="70" rx="18" fill="#101b33" stroke="#22d3ee"/>
    <rect y="164" width="340" height="70" rx="18" fill="#0c162b" stroke="#a855f7"/>
    <circle cx="295" cy="35" r="8" fill="#b8ff2c"/><circle cx="295" cy="117" r="8" fill="#22d3ee"/><circle cx="295" cy="199" r="8" fill="#b8ff2c"/>
    <rect x="30" y="28" width="120" height="12" rx="6" fill="#46617e"/><rect x="30" y="110" width="120" height="12" rx="6" fill="#46617e"/><rect x="30" y="192" width="120" height="12" rx="6" fill="#46617e"/>
  </g>
  <text x="90" y="240" fill="#eef6ff" font-size="82" font-family="Arial, sans-serif" font-weight="900">СЕРВЕР-ДОМ</text>
  <text x="96" y="310" fill="#67e8f9" font-size="34" font-family="Arial, sans-serif" font-weight="700">Серверы под реальные нагрузки бизнеса</text>
  <text x="96" y="375" fill="#9fb1c8" font-size="24" font-family="Arial, sans-serif">Продажа • настройка • кастомная сборка • SLA 24/7</text>
</svg>
